<svg width="1200" height="630" viewBox="0 0 1200 630" fill="none" xmlns="http://www.w3.org/2000/svg">
  <rect width="1200" height="630" fill="#F6EADB"/>
  <rect x="72" y="68" width="1056" height="494" rx="36" fill="#FFF9F2" stroke="#E8D2B7" stroke-width="4"/>
  <rect x="116" y="128" width="498" height="46" rx="23" fill="#1F1A17"/>
  <rect x="116" y="196" width="420" height="34" rx="17" fill="#C75C2A"/>
  <rect x="116" y="254" width="468" height="28" rx="14" fill="#1F1A17" opacity="0.9"/>
  <rect x="116" y="304" width="386" height="28" rx="14" fill="#1F1A17" opacity="0.55"/>
  <rect x="116" y="394" width="344" height="18" rx="9" fill="#1F1A17" opacity="0.9"/>
  <rect x="116" y="430" width="392" height="18" rx="9" fill="#1F1A17" opacity="0.72"/>
  <rect x="116" y="466" width="288" height="18" rx="9" fill="#1F1A17" opacity="0.5"/>
  <circle cx="839" cy="269" r="124" fill="#C75C2A" fill-opacity="0.12"/>
  <path d="M752 329C833.333 241.667 928.667 224.333 1038 277" stroke="#C75C2A" stroke-width="20" stroke-linecap="round"/>
  <path d="M744 206H1025" stroke="#1F1A17" stroke-width="18" stroke-linecap="round" opacity="0.82"/>
  <path d="M744 394H980" stroke="#1F1A17" stroke-width="18" stroke-linecap="round" opacity="0.46"/>
  <text x="116" y="540" fill="#1F1A17" font-size="42" font-family="Georgia, 'Times New Roman', serif">Pretext Typography</text>
</svg>
